<?xml version="1.0" encoding="UTF-8"?>
<svg id="Layer_2" xmlns="http://www.w3.org/2000/svg" version="1.1" viewBox="0 0 706.3 706.3">
  <!-- Generator: Adobe Illustrator 29.5.1, SVG Export Plug-In . SVG Version: 2.1.0 Build 141)  -->
  <defs>
    <style>
      .st0 {
        stroke-width: 20px;
      }

      .st0, .st1, .st2 {
        fill: none;
        stroke: #57716f;
        stroke-miterlimit: 10;
      }

      .st1 {
        stroke-linecap: round;
        stroke-width: 4px;
      }

      .st2 {
        stroke-linecap: square;
        stroke-width: 8px;
      }

      .st3 {
        fill: #57716f;
      }
    </style>
  </defs>
  <g id="Layer_2-2">
    <circle class="st0" cx="353.2" cy="353.2" r="346.2"/>
    <path class="st3" d="M694.4,351.4c.6-.2,1.3-.3,2.1-.3h.1c.4-.1.8-.2,1.3-.2,1.8,0,4.3.4,5.8.4.6,0,1.6-.3,2.6-.5-.3-46.8-9.6-92.2-27.7-135.1-17.8-42.1-43.2-79.8-75.7-112.3-32.4-32.4-70.2-57.9-112.3-75.7C447.1,9.3,400.8,0,353.2,0s-93.9,9.3-137.5,27.8c-42.1,17.8-79.8,43.3-112.3,75.7-32.4,32.4-57.9,70.2-75.7,112.3C9.3,259.2,0,305.5,0,353.2s.1,9.2.3,13.8c.7,0,1.3,0,1.8-.1,1-.1,1.7-.2,2.1-.3.9-.2,1.8-.3,2.8-.4.9-.1,1.8.2,2.6.7,1.4-.2,2.9-.4,4.3-.5h.4c-.2-4.4-.3-8.7-.3-13.1,0-187,152.2-339.2,339.2-339.2s338.1,151.1,339.1,337.3c.7,0,1.4,0,2.1.1h0Z"/>
    <g id="Layer_1-2">
      <g>
        <path class="st1" d="M502.6,367.3c-3.7-2.9-8.6-4.4-13.3-4.1-4.2.3-8.2,1.9-12.1,3.5-5.4,2.2-10.8,4.4-16.1,6.6-4.9,2-9.9,4-15.1,3.6"/>
        <path class="st1" d="M92.2,374.8c-10.4-.8-21.5-3.2-32-.2-10.5,3-20.2,9.3-31.2,10.9"/>
        <path class="st1" d="M685.8,366.9c-13.1,2-33.3-13.5-44.2-10.8"/>
        <path class="st1" d="M594.4,379.8c-17.7,4.6-36.9,6.3-54.5.3"/>
        <path class="st1" d="M304.3,358.2c-20.4-2.3-41.8,1.8-59.2,12.7-3.3,2.1-7.4,2-11.3,1.6"/>
        <path class="st1" d="M151.2,368.5c-16.3-5.2-37.9-6.3-55.3-6.1"/>
        <path class="st1" d="M302.9,376.9c20.4-3.6,40.9,8.3,61.5,6.2"/>
      </g>
      <g>
        <path class="st1" d="M146.4,468.9c9.5-3,19.1-6,29.1-6.7,18.1-1.1,35.7,5.7,53.7,7.7,5.3.6,10.7.7,16,.7,24.4-.1,48.8-4.3,71.9-12.3"/>
        <path class="st1" d="M285.5,500.4c31.4-2.5,61.9,15.1,93.2,12.4,16.6-1.4,32.2-8.4,48.2-12.9,24.4-6.9,50.6-8.1,75.2-2,6.3,1.6,12.5,3.6,18.8,4.7,7.5,1.3,15.3,1.3,22.8-.1"/>
        <path class="st1" d="M404.4,556.6c-18.6,4.2-45.7-2.7-59.5-8.4-7.3-3-14.4-7.2-21.9-9.5-19.6-6.1-35.1-2.8-53.4,6.5-17.7,8.9-38.4,13.3-59.9,13.4-20.5.2-53.6-13.9-75.7-7"/>
        <path class="st1" d="M344,575.8c11-.3,23.1.9,34.8,6,23.4,10.3,50.5,7,75,0,24.5-7.1,48.2-17.8,73.4-21.6,11.6-1.8,23.4-2,35.2-2.3,16.3-.4,33.3-.7,48.3,5.9"/>
        <path class="st1" d="M596.6,592.9c-7-2.7-14.5-4.5-22-4.4-9.9.1-19.5,3.5-28.9,6.8-13.5,4.8-27.1,9.6-40.6,14.3"/>
        <path class="st1" d="M138.2,617.5c9.3,1.4,18.6,2.6,28,1.8,15-.9,29.5-6.5,44.5-8.4,8.6-1.2,17.3-1.2,25.8.3,12.6,2.4,25,5.8,37.5,8.6"/>
        <path class="st1" d="M504.8,666.4c-6.7.1-13.3-.9-20-1.9-9-1.4-18.1-2.8-26.4-6.6-8-3.7-15.3-9.5-24.1-10.2-9.1-.7-17.5,4.4-25.5,8.7-17.5,9.3-36.7,15.5-56.3,18.2"/>
        <path class="st1" d="M443.9,527.3c10.6,4.2,21.3,8.5,32.6,10.6,11.5,2.1,23.4,1.9,34.8-.7,14.8-3.4,28.6-10.6,43.6-13.3,7.5-1.4,15.3-1.5,22.9-1.7"/>
        <path class="st1" d="M58,495.7c20.4,4.7,41.2,13.7,61.5,8.7,5.9-1.5,11.4-4.1,17.2-6.1,15.7-5.5,32.9-6.4,49.1-2.5,15.1,3.6,29.5,11.3,45.1,10.9"/>
        <path class="st1" d="M678.1,474.5c-11.5,2.4-23.3-1-34.2-5.3s-21.6-9.5-33.2-11c-16.7-2.2-33.3,3.5-49.6,7.5-26.1,6.2-54.8,7.7-78.9-4.3"/>
        <path class="st1" d="M18,444.2c15.9-6.8,33.3-9.8,50.5-8.8,15.6.9,31.5,5.1,46.7,1.4,12.6-3.1,23.5-11.4,36.2-14.2,4.4-1,9-1.3,13.5-1.3,12.1,0,24.2,2.4,35.5,7"/>
        <path class="st1" d="M434.4,432.4c-26.5-12.3-56.5-17.1-85.5-13.8-5.3.6-10.5,1.5-15.7,2.8-18.6,4.6-37.1,14.8-55.8,10.6"/>
        <path class="st1" d="M361.8,454.9c4.4,2.4,9.5,2.8,14.4,3.2,5.1.4,10.2.8,15.2,0,5.8-1,11.1-3.5,16.8-5s12.1-1.8,17,1.4"/>
        <path class="st1" d="M182.6,649c12.2,8.2,28.1,11.3,42,6.5,5.7-2,11-5.1,16.8-6.8,9.5-2.7,19.7-1.1,29.2,1.5,9.5,2.6,18.8,6.2,28.6,7.5s20.4,0,28.1-6.2"/>
        <path class="st1" d="M451.9,608.6c-9.2,2.4-18.8,3.1-28.3,2-5-.6-9.9-1.6-14.9-1.5-17.4.4-32.9,15-50.2,12.7-13.6-1.8-24.4-13.6-38-14.5"/>
        <path class="st1" d="M129.6,581.1c6.4,2.8,13.6,2.5,20.4,1.3s13.5-3.3,20.4-4c10.1-1,20.3.9,30.3,2.8"/>
        <path class="st1" d="M633.7,484.3c-4.8,1.5-9.3-2.8-13.7-5.3-8.1-4.7-18.3-3.4-27.5-1.4-7.2,1.5-14.2,3.4-21.2,5.5"/>
        <path class="st1" d="M690.3,420.4c-2.5-5-9-6.9-14.6-6.1s-10.6,3.6-15.9,5.6c-9.8,3.8-20.4,5.1-30.8,6.3-2.9.3-5.8.7-8.8.4-10.9-1.1-20.2-10.8-31-9.3"/>
        <path class="st1" d="M467.3,416.2c22.4,11.5,37.1,1.8,59.3-1.7,7.4-1,14.9-.9,22.4-.7"/>
        <path class="st1" d="M215.8,402.9c4.6-1.9,9.9-1,14.6.4s9.5,3.4,14.5,3.6c10.2.5,20.5-6.3,30.2-3.2"/>
        <path class="st1" d="M56.4,460.2c5.4-1.8,11.2-1.7,16.8-1.1s11.3,1.4,16.9,1"/>
        <path class="st1" d="M582.9,431.6c-6.7-.6-13.2-2.8-19.9-2.3-5.5.4-10.8,2.5-16.1,4-8.8,2.4-18.2,3-27.3,1.8"/>
      </g>
      <g>
        <path class="st2" d="M158.9,353.6c21.2,3.9,43.2,5.9,65.2,3.9,23-3,44-12,67-16,21-3,39,7,57,15,41,16,84,2,124-13,9-3,18-4,27-3,15,2,28,9,42,14,26,10,51-3,75-12,7-2,14-4,21-5s13,0,19,1c15,4,27,13,41.5,13.4"/>
        <path class="st2" d="M7.6,367c10.2-1.5,19.4-5.9,28.8-9.8,9.2-3.8,18.9-6.7,28.7-8.5,19.9-3.8,40.5-3.6,60.5-.8,11.9,1.7,23.8,4.1,35.7,6.2"/>
      </g>
    </g>
  </g>
  <path class="st3" d="M174.3,530.7v-9.8c10.7-.6,18.8-2,24.1-3.9,5.4-2,8.9-5.9,10.7-11.7,1.8-5.9,2.7-14.6,2.7-26.3v-241.8c0-12-.9-20.9-2.7-26.6-1.8-5.7-5.4-9.6-10.7-11.7-5.4-2.1-13.4-3.3-24.1-3.7v-9.8c7.8.3,18.1.7,31,1,12.8.3,26.6.5,41.2.5s25.8-.2,38.5-.5c12.7-.3,23.1-.6,31.2-1v9.8c-10.4.3-18.3,1.5-23.6,3.7-5.4,2.1-9,6-11,11.7-2,5.7-2.9,14.6-2.9,26.6v241.8c0,11.7.9,20.5,2.7,26.3,1.8,5.9,5.4,9.8,11,11.7,5.5,2,13.5,3.3,23.9,3.9v9.8c-8.1-.6-18.5-1.1-31.2-1.2-12.7-.2-25.5-.2-38.5-.2s-28.4,0-41.2.2c-12.8.2-23.2.6-31,1.2ZM251.8,362v-9.8h192.6v9.8h-192.6ZM380,530.7v-9.8c10.7-.6,18.8-2,24.1-3.9s8.9-5.9,10.7-11.7c1.8-5.9,2.7-14.6,2.7-26.3v-241.8c0-12-.9-20.9-2.7-26.6-1.8-5.7-5.4-9.6-10.7-11.7-5.4-2.1-13.4-3.3-24.1-3.7v-9.8c8.8.3,19.7.7,32.7,1,13,.3,26,.5,39,.5s27.7-.2,40.2-.5c12.5-.3,22.5-.6,30-1v9.8c-10.4.3-18.3,1.5-23.6,3.7-5.4,2.1-9,6-11,11.7-2,5.7-2.9,14.6-2.9,26.6v241.8c0,11.7.9,20.5,2.7,26.3,1.8,5.9,5.4,9.8,11,11.7,5.5,2,13.5,3.3,23.9,3.9v9.8c-7.5-.6-17.5-1.1-30-1.2-12.5-.2-25.9-.2-40.2-.2s-26,0-39,.2c-13,.2-23.9.6-32.7,1.2Z"/>
</svg>