<?xml version="1.0" encoding="UTF-8"?>
<svg id="Flat" xmlns="http://www.w3.org/2000/svg" version="1.1" viewBox="0 0 800 800">
  <!-- Generator: Adobe Illustrator 29.5.1, SVG Export Plug-In . SVG Version: 2.1.0 Build 141)  -->
  <path d="M400,229.6c-94.1,0-170.4,76.3-170.4,170.4s76.3,170.4,170.4,170.4,170.4-76.3,170.4-170.4h0c-.1-94-76.3-170.3-170.4-170.4ZM400,481.5c-45,0-81.5-36.5-81.5-81.5s36.5-81.5,81.5-81.5,81.5,36.5,81.5,81.5c0,45-36.5,81.4-81.5,81.5ZM577.8,0H222.2C99.5.1.1,99.5,0,222.2v355.6c.1,122.7,99.5,222.1,222.2,222.2h355.6c122.7-.1,222.1-99.5,222.2-222.2V222.2C799.9,99.5,700.5.1,577.8,0ZM711.1,577.8c0,73.6-59.7,133.3-133.3,133.3H222.2c-73.6,0-133.3-59.7-133.3-133.3V222.2c0-73.6,59.7-133.3,133.3-133.3h355.6c73.6,0,133.3,59.7,133.3,133.3v355.6ZM651.9,207.4c0,32.7-26.5,59.3-59.3,59.3s-59.3-26.5-59.3-59.3,26.5-59.3,59.3-59.3c32.7,0,59.2,26.5,59.3,59.3Z"/>
</svg>