<?xml version="1.0" encoding="UTF-8"?>
<svg id="Layer_2" data-name="Layer 2" xmlns="http://www.w3.org/2000/svg" viewBox="0 0 692.04 85.44">
  <defs>
    <style>
      .cls-1 {
        fill: #efd7af;
      }

      .cls-2 {
        stroke: #a9d1cf;
        stroke-width: 2px;
      }

      .cls-2, .cls-3 {
        fill: none;
        stroke-linecap: round;
        stroke-miterlimit: 10;
      }

      .cls-3 {
        stroke: #a9d0cf;
      }

      .cls-4 {
        fill: #a9d1cf;
      }
    </style>
  </defs>
  <g id="Layer_1-2" data-name="Layer 1">
    <path class="cls-3" d="M495.99,56.46c-3.74-2.91-8.57-4.4-13.3-4.09-4.21.27-8.2,1.89-12.11,3.49-5.38,2.2-10.75,4.4-16.13,6.6-4.85,1.98-9.91,4-15.13,3.64"/>
    <path class="cls-3" d="M85.58,63.97c-10.44-.78-21.53-3.22-32.02-.22-10.55,3.01-20.19,9.3-31.22,10.9"/>
    <path class="cls-3" d="M679.2,56.11c-13.1,1.97-33.29-13.54-44.24-10.83"/>
    <path class="cls-3" d="M587.81,69.02c-17.74,4.64-36.86,6.31-54.46.32"/>
    <path class="cls-3" d="M297.74,47.38c-20.37-2.3-41.76,1.75-59.21,12.72-3.3,2.08-7.44,2.01-11.32,1.62"/>
    <path class="cls-3" d="M144.67,57.7c-16.32-5.17-37.92-6.28-55.32-6.14"/>
    <path class="cls-3" d="M296.31,66.12c20.42-3.62,40.9,8.31,61.53,6.25"/>
    <g>
      <path class="cls-1" d="M37.73,85.2v-2.4c2.56-.16,4.48-.48,5.76-.96,1.28-.48,2.14-1.44,2.58-2.88.44-1.44.66-3.6.66-6.48V12.96c0-2.96-.22-5.14-.66-6.54-.44-1.4-1.32-2.36-2.64-2.88-1.32-.52-3.22-.82-5.7-.9V.24c2.08.08,4.8.16,8.16.24,3.36.08,6.96.12,10.8.12,3.36,0,6.68-.04,9.96-.12,3.28-.08,6-.16,8.16-.24v2.4c-2.56.08-4.5.38-5.82.9-1.32.52-2.18,1.48-2.58,2.88-.4,1.4-.6,3.58-.6,6.54v59.52c0,2.88.22,5.04.66,6.48.44,1.44,1.32,2.4,2.64,2.88,1.32.48,3.22.8,5.7.96v2.4c-2.16-.16-4.88-.26-8.16-.3-3.28-.04-6.6-.06-9.96-.06-3.84,0-7.44.02-10.8.06-3.36.04-6.08.14-8.16.3ZM58.01,43.68v-2.4h47.4v2.4h-47.4ZM88.61,85.2v-2.4c2.56-.16,4.48-.48,5.76-.96,1.28-.48,2.14-1.44,2.58-2.88.44-1.44.66-3.6.66-6.48V12.96c0-2.96-.22-5.14-.66-6.54-.44-1.4-1.32-2.36-2.64-2.88-1.32-.52-3.22-.82-5.7-.9V.24c2.16.08,4.98.16,8.46.24,3.48.08,6.94.12,10.38.12,3.68,0,7.14-.04,10.38-.12,3.24-.08,5.86-.16,7.86-.24v2.4c-2.56.08-4.5.38-5.82.9-1.32.52-2.18,1.48-2.58,2.88-.4,1.4-.6,3.58-.6,6.54v59.52c0,2.88.22,5.04.66,6.48.44,1.44,1.32,2.4,2.64,2.88,1.32.48,3.22.8,5.7.96v2.4c-2-.16-4.62-.26-7.86-.3-3.24-.04-6.7-.06-10.38-.06-3.44,0-6.9.02-10.38.06-3.48.04-6.3.14-8.46.3Z"/>
      <path class="cls-1" d="M173.81,0l29.16,75.12c1.12,2.88,2.38,4.86,3.78,5.94,1.4,1.08,2.66,1.66,3.78,1.74v2.4c-2.4-.16-5.22-.26-8.46-.3-3.24-.04-6.5-.06-9.78-.06-3.68,0-7.16.02-10.44.06-3.28.04-5.88.14-7.8.3v-2.4c4.08-.16,6.66-.86,7.74-2.1,1.08-1.24.82-3.9-.78-7.98l-20.4-55.8,2.16-3.12-18.24,47.52c-1.76,4.4-2.82,8-3.18,10.8-.36,2.8-.16,4.96.6,6.48.76,1.52,2,2.58,3.72,3.18,1.72.6,3.78.94,6.18,1.02v2.4c-2.64-.16-5.16-.26-7.56-.3-2.4-.04-4.84-.06-7.32-.06-1.76,0-3.42.02-4.98.06-1.56.04-2.94.14-4.14.3v-2.4c1.68-.32,3.4-1.4,5.16-3.24,1.76-1.84,3.48-4.96,5.16-9.36L165.53,0c1.28.08,2.66.12,4.14.12s2.86-.04,4.14-.12ZM182.21,50.64v2.4h-35.76l1.2-2.4h34.56Z"/>
      <path class="cls-1" d="M291.05.24v2.4c-1.76.64-3.62,2.04-5.58,4.2-1.96,2.16-3.78,5.52-5.46,10.08l-25.32,68.52c-.64-.08-1.32-.12-2.04-.12h-4.2c-.72,0-1.4.04-2.04.12l-30.6-75.12c-1.12-2.88-2.36-4.86-3.72-5.94-1.36-1.08-2.64-1.66-3.84-1.74V.24c2.4.08,5.22.16,8.46.24,3.24.08,6.5.12,9.78.12,3.68,0,7.14-.04,10.38-.12,3.24-.08,5.86-.16,7.86-.24v2.4c-2.56.08-4.56.38-6,.9-1.44.52-2.24,1.48-2.4,2.88-.16,1.4.32,3.5,1.44,6.3l21.84,55.56-2.52,3,16.56-44.64c2.16-6,3.28-10.72,3.36-14.16.08-3.44-.76-5.92-2.52-7.44-1.76-1.52-4.28-2.32-7.56-2.4V.24c2.72.08,5.28.16,7.68.24,2.4.08,4.84.12,7.32.12,1.76,0,3.42-.04,4.98-.12,1.56-.08,2.94-.16,4.14-.24Z"/>
      <path class="cls-1" d="M293.93.24c2.08.08,4.8.16,8.16.24,3.36.08,6.72.12,10.08.12,3.92,0,7.66-.04,11.22-.12,3.56-.08,6.1-.12,7.62-.12,9.92,0,17.34,1.76,22.26,5.28,4.92,3.52,7.38,8.04,7.38,13.56,0,2.8-.84,5.64-2.52,8.52-1.68,2.88-4.28,5.44-7.8,7.68-3.52,2.24-8.08,3.88-13.68,4.92v.24c7.52.56,13.48,1.92,17.88,4.08,4.4,2.16,7.56,4.76,9.48,7.8,1.92,3.04,2.88,6.2,2.88,9.48,0,5.04-1.32,9.28-3.96,12.72-2.64,3.44-6.44,6.06-11.4,7.86-4.96,1.8-10.88,2.7-17.76,2.7-1.92,0-4.68-.06-8.28-.18-3.6-.12-7.96-.18-13.08-.18-3.52,0-6.96.02-10.32.06-3.36.04-6.08.14-8.16.3v-2.4c2.56-.16,4.48-.48,5.76-.96,1.28-.48,2.14-1.44,2.58-2.88.44-1.44.66-3.6.66-6.48V12.96c0-2.96-.22-5.14-.66-6.54-.44-1.4-1.32-2.36-2.64-2.88-1.32-.52-3.22-.82-5.7-.9V.24ZM329.45,2.64c-3.12,0-5.14.68-6.06,2.04-.92,1.36-1.38,4.12-1.38,8.28v59.52c0,2.8.22,4.92.66,6.36.44,1.44,1.24,2.4,2.4,2.88,1.16.48,2.9.72,5.22.72,5.84,0,10.08-1.82,12.72-5.46,2.64-3.64,3.96-8.82,3.96-15.54,0-6.16-1.54-10.92-4.62-14.28-3.08-3.36-8.18-5.04-15.3-5.04h-10.2v-2.04h10.32c3.76,0,6.66-.9,8.7-2.7,2.04-1.8,3.44-4.2,4.2-7.2.76-3,1.14-6.22,1.14-9.66,0-5.92-.92-10.38-2.76-13.38-1.84-3-4.84-4.5-9-4.5Z"/>
      <path class="cls-1" d="M412.37.24v2.4c-2.72.08-4.78.38-6.18.9-1.4.52-2.34,1.48-2.82,2.88-.48,1.4-.72,3.58-.72,6.54v60.96c0,2.48.18,4.32.54,5.52.36,1.2,1.08,2,2.16,2.4,1.08.4,2.7.6,4.86.6h5.88c2.72,0,5.28-.64,7.68-1.92,2.4-1.28,4.56-3.1,6.48-5.46,1.92-2.36,3.52-5.18,4.8-8.46,1.28-3.28,2.24-6.92,2.88-10.92h2.76c-.24,2.72-.36,6.24-.36,10.56,0,1.84.04,4.52.12,8.04.08,3.52.32,7.16.72,10.92-4.08-.16-8.68-.26-13.8-.3-5.12-.04-9.68-.06-13.68-.06h-7.68c-3.12,0-6.48.02-10.08.06-3.6.04-7.24.08-10.92.12-3.68.04-7.16.1-10.44.18v-2.4c2.56-.16,4.48-.48,5.76-.96,1.28-.48,2.14-1.44,2.58-2.88.44-1.44.66-3.6.66-6.48V12.96c0-2.96-.22-5.14-.66-6.54-.44-1.4-1.32-2.36-2.64-2.88-1.32-.52-3.22-.82-5.7-.9V.24c2,.08,4.7.16,8.1.24,3.4.08,7.02.12,10.86.12,3.52,0,6.98-.04,10.38-.12,3.4-.08,6.22-.16,8.46-.24Z"/>
      <path class="cls-1" d="M484.97.24v2.4c-2.56.08-4.5.38-5.82.9-1.32.52-2.18,1.48-2.58,2.88-.4,1.4-.6,3.58-.6,6.54v59.52c0,2.88.22,5.04.66,6.48.44,1.44,1.32,2.4,2.64,2.88,1.32.48,3.22.8,5.7.96v2.4c-2.16-.16-4.88-.26-8.16-.3-3.28-.04-6.6-.06-9.96-.06-3.84,0-7.44.02-10.8.06-3.36.04-6.08.14-8.16.3v-2.4c2.56-.16,4.48-.48,5.76-.96,1.28-.48,2.14-1.44,2.58-2.88.44-1.44.66-3.6.66-6.48V12.96c0-2.96-.22-5.14-.66-6.54-.44-1.4-1.32-2.36-2.64-2.88-1.32-.52-3.22-.82-5.7-.9V.24c2.08.08,4.8.16,8.16.24,3.36.08,6.96.12,10.8.12,3.36,0,6.68-.04,9.96-.12,3.28-.08,6-.16,8.16-.24Z"/>
      <path class="cls-1" d="M572.09.24v2.4c-2.56.32-4.48.98-5.76,1.98-1.28,1-2.14,2.58-2.58,4.74-.44,2.16-.66,5.2-.66,9.12v66.96c-.96-.08-1.94-.12-2.94-.12s-2.06.04-3.18.12l-52.08-66v46.08c0,4.4.24,7.78.72,10.14.48,2.36,1.54,4.04,3.18,5.04,1.64,1,4.22,1.7,7.74,2.1v2.4c-1.52-.16-3.52-.26-6-.3-2.48-.04-4.8-.06-6.96-.06-1.84,0-3.72.02-5.64.06-1.92.04-3.52.14-4.8.3v-2.4c2.56-.4,4.48-1.08,5.76-2.04,1.28-.96,2.14-2.54,2.58-4.74.44-2.2.66-5.22.66-9.06V12.96c0-2.96-.22-5.14-.66-6.54-.44-1.4-1.32-2.36-2.64-2.88-1.32-.52-3.22-.82-5.7-.9V.24c1.28.08,2.88.16,4.8.24,1.92.08,3.8.12,5.64.12s3.76-.04,5.52-.12c1.76-.08,3.36-.16,4.8-.24l46.44,57.24V19.92c0-4.4-.24-7.78-.72-10.14-.48-2.36-1.54-4.06-3.18-5.1-1.64-1.04-4.22-1.72-7.74-2.04V.24c1.52.08,3.52.16,6,.24,2.48.08,4.8.12,6.96.12,1.92,0,3.82-.04,5.7-.12,1.88-.08,3.46-.16,4.74-.24Z"/>
      <path class="cls-1" d="M616.72.24v2.4c-2.56.08-4.5.38-5.82.9-1.32.52-2.18,1.48-2.58,2.88-.4,1.4-.6,3.58-.6,6.54v59.52c0,2.88.22,5.04.66,6.48.44,1.44,1.3,2.4,2.58,2.88,1.28.48,3.2.8,5.76.96v2.4c-2.16-.16-4.88-.26-8.16-.3-3.28-.04-6.6-.06-9.96-.06-3.84,0-7.46.02-10.86.06-3.4.04-6.1.14-8.1.3v-2.4c2.56-.16,4.48-.48,5.76-.96,1.28-.48,2.14-1.44,2.58-2.88.44-1.44.66-3.6.66-6.48V12.96c0-2.96-.22-5.14-.66-6.54-.44-1.4-1.32-2.36-2.64-2.88-1.32-.52-3.22-.82-5.7-.9V.24c2,.08,4.7.16,8.1.24,3.4.08,7.02.12,10.86.12,3.36,0,6.68-.04,9.96-.12,3.28-.08,6-.16,8.16-.24ZM658.24.24v2.28c-2.56.56-5.3,1.68-8.22,3.36-2.92,1.68-5.98,4.4-9.18,8.16l-22.56,26.88,6.96-9.96,28.56,44.52c1.12,1.84,2.32,3.32,3.6,4.44,1.28,1.12,2.96,2.08,5.04,2.88v2.4c-2.8-.16-5.92-.26-9.36-.3-3.44-.04-6.56-.06-9.36-.06-1.68,0-3.72.02-6.12.06-2.4.04-5.44.14-9.12.3v-2.4c3.28-.16,5.26-.62,5.94-1.38.68-.76.38-2.1-.9-4.02l-17.4-28.2c-1.12-1.84-2.12-3.22-3-4.14-.88-.92-1.76-1.56-2.64-1.92-.88-.36-2.04-.58-3.48-.66v-2.52c3.52-.08,6.66-1.04,9.42-2.88,2.76-1.84,5.78-4.64,9.06-8.4l7.08-8.52c3.04-3.6,4.82-6.7,5.34-9.3.52-2.6,0-4.62-1.56-6.06-1.56-1.44-3.94-2.2-7.14-2.28V.24c2,.08,3.9.14,5.7.18,1.8.04,3.68.08,5.64.12,1.96.04,4.1.06,6.42.06s4.42-.04,6.3-.12c1.88-.08,3.54-.16,4.98-.24Z"/>
    </g>
    <g>
      <path class="cls-2" d="M152.32,42.82c21.19,3.91,43.19,5.91,65.19,3.91,23-3,44-12,67-16,21-3,39,7,57,15,41,16,84,2,124-13,9-3,18-4,27-3,15,2,28,9,42,14,26,10,51-3,75-12,7-2,14-4,21-5s13,0,19,1c15,4,27,13,41.53,13.35"/>
      <path class="cls-2" d="M1,56.19c10.21-1.54,19.38-5.87,28.82-9.78,9.25-3.84,18.89-6.68,28.73-8.55,19.94-3.8,40.46-3.58,60.51-.79,11.95,1.66,23.79,4.15,35.69,6.18"/>
    </g>
    <g>
      <path class="cls-4" d="M119.99,81.84c-1.32-.48-2.2-1.44-2.64-2.88-.44-1.44-.66-3.6-.66-6.48v-35.86c-2.57-.23-5.21-.85-7.67-1.19-3.82-.54-7.58-.83-11.41-.92v6.77h-31.8v-5.49c-3.17.93-6.47,1.27-9.66,2.16-3.19.88-6.21,1.89-9.42,2.49v32.04c0,2.88-.22,5.04-.66,6.48-.44,1.44-1.3,2.4-2.58,2.88-1.28.48-3.2.8-5.76.96v2.4c2.08-.16,4.8-.26,8.16-.3,3.36-.04,6.96-.06,10.8-.06,3.36,0,6.68.02,9.96.06,3.28.04,6,.14,8.16.3v-2.4c-2.48-.16-4.38-.48-5.7-.96-1.32-.48-2.2-1.44-2.64-2.88-.44-1.44-.66-3.6-.66-6.48v-28.8h31.8v28.8c0,2.88-.22,5.04-.66,6.48-.44,1.44-1.3,2.4-2.58,2.88-1.28.48-3.2.8-5.76.96v2.4c2.16-.16,4.98-.26,8.46-.3,3.48-.04,6.94-.06,10.38-.06,3.68,0,7.14.02,10.38.06,3.24.04,5.86.14,7.86.3v-2.4c-2.48-.16-4.38-.48-5.7-.96Z"/>
      <path class="cls-4" d="M206.75,81.06c-1.4-1.08-2.66-3.06-3.78-5.94l-10.63-27.37c-2.13.06-4.27-.07-6.43-.14-5.03-.17-9.84-.31-14.71-1.72l1.74,4.75h-24.31l3-7.81c-.27,0-.55,0-.83-.03-.62-.05-1.22-.2-1.78-.43l-10.85,27.83c-1.68,4.4-3.4,7.52-5.16,9.36-1.76,1.84-3.48,2.92-5.16,3.24v2.4c1.2-.16,2.58-.26,4.14-.3,1.56-.04,3.22-.06,4.98-.06,2.48,0,4.92.02,7.32.06,2.4.04,4.92.14,7.56.3v-2.4c-2.4-.08-4.46-.42-6.18-1.02-1.72-.6-2.96-1.66-3.72-3.18-.76-1.52-.96-3.68-.6-6.48.36-2.8,1.42-6.4,3.18-10.8l3.18-8.28h26.11l7.19,19.68c1.6,4.08,1.86,6.74.78,7.98-1.08,1.24-3.66,1.94-7.74,2.1v2.4c1.92-.16,4.52-.26,7.8-.3,3.28-.04,6.76-.06,10.44-.06,3.28,0,6.54.02,9.78.06,3.24.04,6.06.14,8.46.3v-2.4c-1.12-.08-2.38-.66-3.78-1.74Z"/>
      <path class="cls-4" d="M271.05,33.66l-12.16,32.78-10.45-26.58c-.15.04-.29.07-.44.11-3.19.92-6.21,2.32-9.42,3.2-2.85.78-5.75,1.31-8.67,1.74l16.51,40.53c.64-.08,1.32-.12,2.04-.12h4.2c.72,0,1.4.04,2.04.12l19.51-52.8c-.94.64-2.06.98-3.15,1.01Z"/>
      <path class="cls-4" d="M362.94,50.99c-3.14.14-6.06-1.31-9.3-1.56-2.65-.21-4.68-1-6.61-2.21-1.86-.52-3.68-1.18-5.42-2.1-.25-.13-.48-.28-.69-.44-1.04-.2-2.07-.41-3.09-.67,1.81.8,3.32,1.84,4.52,3.15,3.08,3.36,4.62,8.12,4.62,14.28,0,6.72-1.32,11.9-3.96,15.54-2.64,3.64-6.88,5.46-12.72,5.46-2.32,0-4.06-.24-5.22-.72-1.16-.48-1.96-1.44-2.4-2.88-.44-1.44-.66-3.56-.66-6.36v-30.36h5.04c2.56,0,4.85.23,6.89.66-1.87-.73-3.57-1.63-5-2.78-.57.05-1.15.08-1.76.08h-5.16v-2.97c-2.82-.53-5.55-1.8-8.47-2.84-3.37-1.21-7.19-1.84-10.61-3.11v41.33c0,2.88-.22,5.04-.66,6.48-.44,1.44-1.3,2.4-2.58,2.88-1.28.48-3.2.8-5.76.96v2.4c2.08-.16,4.8-.26,8.16-.3,3.36-.04,6.8-.06,10.32-.06,5.12,0,9.48.06,13.08.18,3.6.12,6.36.18,8.28.18,6.88,0,12.8-.9,17.76-2.7,4.96-1.8,8.76-4.42,11.4-7.86,2.64-3.44,3.96-7.68,3.96-12.72,0-3.28-.96-6.44-2.88-9.48-.32-.5-.68-.98-1.07-1.46Z"/>
      <path class="cls-4" d="M440.45,74.28c-.08-3.52-.12-6.2-.12-8.04,0-4.32.12-7.84.36-10.56h-2.76c-.64,4-1.6,7.64-2.88,10.92-1.28,3.28-2.88,6.1-4.8,8.46-1.92,2.36-4.08,4.18-6.48,5.46-2.4,1.28-4.96,1.92-7.68,1.92h-5.88c-2.16,0-3.78-.2-4.86-.6-1.08-.4-1.8-1.2-2.16-2.4-.36-1.2-.54-3.04-.54-5.52v-24.01c-4.38,1.37-9.14,2.06-13.65,2.35-1.67.11-3.53.3-5.43.38v19.84c0,2.88-.22,5.04-.66,6.48-.44,1.44-1.3,2.4-2.58,2.88-1.28.48-3.2.8-5.76.96v2.4c3.28-.08,6.76-.14,10.44-.18,3.68-.04,7.32-.08,10.92-.12,3.6-.04,6.96-.06,10.08-.06h7.68c4,0,8.56.02,13.68.06,5.12.04,9.72.14,13.8.3-.4-3.76-.64-7.4-.72-10.92Z"/>
      <path class="cls-4" d="M476.63,78.96c-.44-1.44-.66-3.6-.66-6.48V30.2c-4.69,1.76-9.81,3.51-14.78,4.03-1.42.45-2.85.86-4.3,1.17v37.08c0,2.88-.22,5.04-.66,6.48-.44,1.44-1.3,2.4-2.58,2.88-1.28.48-3.2.8-5.76.96v2.4c2.08-.16,4.8-.26,8.16-.3,3.36-.04,6.96-.06,10.8-.06,3.36,0,6.68.02,9.96.06,3.28.04,6,.14,8.16.3v-2.4c-2.48-.16-4.38-.48-5.7-.96-1.32-.48-2.2-1.44-2.64-2.88Z"/>
      <path class="cls-4" d="M505.6,75.66c-.48-2.36-.72-5.74-.72-10.14V31.81c-.97-.05-1.93-.34-2.76-.89v36.04c0,3.84-.22,6.86-.66,9.06-.44,2.2-1.3,3.78-2.58,4.74-1.28.96-3.2,1.64-5.76,2.04v2.4c1.28-.16,2.88-.26,4.8-.3,1.92-.04,3.8-.06,5.64-.06,2.16,0,4.48.02,6.96.06,2.48.04,4.48.14,6,.3v-2.4c-3.52-.4-6.1-1.1-7.74-2.1-1.64-1-2.7-2.68-3.18-5.04Z"/>
      <path class="cls-4" d="M560.33,47.36v10.12l-7.97-9.83c-4.53.18-10.23-2.01-13.5-2.75-5.33-1.2-10.31-3.6-15.61-4.97-.99-.26-1.95-.54-2.87-.87l36.59,46.37c1.12-.08,2.18-.12,3.18-.12s1.98.04,2.94.12v-38.61c-.89.41-1.84.58-2.76.53Z"/>
      <path class="cls-4" d="M653.8,75.48l-27.95-43.57,4.52-5.39c-1.19.73-2.46.88-3.6.62l-1.29,1.55c-3.28,3.76-6.3,6.56-9.06,8.4-2.57,1.71-5.47,2.65-8.7,2.84v-8.39c-3.53,1.7-7.55,2.71-11,4.52-2.68,1.41-5.33,2.55-8.08,3.4v33.03c0,2.88-.22,5.04-.66,6.48-.44,1.44-1.3,2.4-2.58,2.88-1.28.48-3.2.8-5.76.96v2.4c2-.16,4.7-.26,8.1-.3,3.4-.04,7.02-.06,10.86-.06,3.36,0,6.68.02,9.96.06,3.28.04,6,.14,8.16.3v-2.4c-2.56-.16-4.48-.48-5.76-.96-1.28-.48-2.14-1.44-2.58-2.88-.44-1.44-.66-3.6-.66-6.48v-29.94c1.11.11,2.03.3,2.76.6.88.36,1.76,1,2.64,1.92.88.92,1.88,2.3,3,4.14l17.4,28.2c1.28,1.92,1.58,3.26.9,4.02-.68.76-2.66,1.22-5.94,1.38v2.4c3.68-.16,6.72-.26,9.12-.3,2.4-.04,4.44-.06,6.12-.06,2.8,0,5.92.02,9.36.06,3.44.04,6.56.14,9.36.3v-2.4c-2.08-.8-3.76-1.76-5.04-2.88-1.28-1.12-2.48-2.6-3.6-4.44Z"/>
    </g>
  </g>
</svg>